<?xml version="1.0"?>
<!-- Generated by SVGo and Plotinum VG -->
<svg width="720pt" height="432pt" viewBox="0 0 720 432"
	xmlns="http://www.w3.org/2000/svg"
	xmlns:xlink="http://www.w3.org/1999/xlink">
<g transform="scale(1, -1) translate(0, -432)">
<path d="M0,0L720,0L720,432L0,432Z" style="fill:#FFFFFF" />
<text x="303.29" y="-422.61" transform="scale(1, -1)"
	style="font-family:Liberation Serif;font-variant:normal;font-weight:normal;font-style:normal;font-size:12px">PV Diagram for Ethane</text>
<text x="320.83" y="-3.9023" transform="scale(1, -1)"
	style="font-family:Liberation Serif;font-variant:normal;font-weight:normal;font-style:normal;font-size:12px">Molar Volume (cm³/mol)</text>
<text x="39.635" y="-16.541" transform="scale(1, -1)"
	style="font-family:Liberation Serif;font-variant:normal;font-weight:normal;font-style:normal;font-size:10px">0</text>
<text x="338.72" y="-16.541" transform="scale(1, -1)"
	style="font-family:Liberation Serif;font-variant:normal;font-weight:normal;font-style:normal;font-size:10px">500</text>
<text x="640.3" y="-16.541" transform="scale(1, -1)"
	style="font-family:Liberation Serif;font-variant:normal;font-weight:normal;font-style:normal;font-size:10px">1000</text>
<path d="M42.135,24.363L42.135,32.363" style="fill:none;stroke:#000000;stroke-width:0.5" />
<path d="M346.22,24.363L346.22,32.363" style="fill:none;stroke:#000000;stroke-width:0.5" />
<path d="M650.3,24.363L650.3,32.363" style="fill:none;stroke:#000000;stroke-width:0.5" />
<path d="M102.95,28.363L102.95,32.363" style="fill:none;stroke:#000000;stroke-width:0.5" />
<path d="M163.77,28.363L163.77,32.363" style="fill:none;stroke:#000000;stroke-width:0.5" />
<path d="M224.58,28.363L224.58,32.363" style="fill:none;stroke:#000000;stroke-width:0.5" />
<path d="M285.4,28.363L285.4,32.363" style="fill:none;stroke:#000000;stroke-width:0.5" />
<path d="M407.03,28.363L407.03,32.363" style="fill:none;stroke:#000000;stroke-width:0.5" />
<path d="M467.85,28.363L467.85,32.363" style="fill:none;stroke:#000000;stroke-width:0.5" />
<path d="M528.67,28.363L528.67,32.363" style="fill:none;stroke:#000000;stroke-width:0.5" />
<path d="M589.48,28.363L589.48,32.363" style="fill:none;stroke:#000000;stroke-width:0.5" />
<path d="M711.12,28.363L711.12,32.363" style="fill:none;stroke:#000000;stroke-width:0.5" />
<path d="M42.135,32.363L720,32.363" style="fill:none;stroke:#000000;stroke-width:0.5" />
<g transform="rotate(90)">
<text x="194.68" y="9.3867" transform="scale(1, -1)"
	style="font-family:Liberation Serif;font-variant:normal;font-weight:normal;font-style:normal;font-size:12px">Pressure (bar)</text>
</g>
<text x="20.885" y="-35.328" transform="scale(1, -1)"
	style="font-family:Liberation Serif;font-variant:normal;font-weight:normal;font-style:normal;font-size:10px">0</text>
<text x="15.885" y="-191.77" transform="scale(1, -1)"
	style="font-family:Liberation Serif;font-variant:normal;font-weight:normal;font-style:normal;font-size:10px">30</text>
<text x="15.885" y="-348.22" transform="scale(1, -1)"
	style="font-family:Liberation Serif;font-variant:normal;font-weight:normal;font-style:normal;font-size:10px">60</text>
<path d="M28.385,37.613L36.385,37.613" style="fill:none;stroke:#000000;stroke-width:0.5" />
<path d="M28.385,194.06L36.385,194.06" style="fill:none;stroke:#000000;stroke-width:0.5" />
<path d="M28.385,350.5L36.385,350.5" style="fill:none;stroke:#000000;stroke-width:0.5" />
<path d="M32.385,89.761L36.385,89.761" style="fill:none;stroke:#000000;stroke-width:0.5" />
<path d="M32.385,141.91L36.385,141.91" style="fill:none;stroke:#000000;stroke-width:0.5" />
<path d="M32.385,246.21L36.385,246.21" style="fill:none;stroke:#000000;stroke-width:0.5" />
<path d="M32.385,298.35L36.385,298.35" style="fill:none;stroke:#000000;stroke-width:0.5" />
<path d="M32.385,402.65L36.385,402.65" style="fill:none;stroke:#000000;stroke-width:0.5" />
<path d="M36.385,37.613L36.385,418.71" style="fill:none;stroke:#000000;stroke-width:0.5" />
<path d="M42.135,37.613L42.135,418.71" style="fill:none;stroke:#DCDCDC;stroke-width:0.25" />
<path d="M346.22,37.613L346.22,418.71" style="fill:none;stroke:#DCDCDC;stroke-width:0.25" />
<path d="M650.3,37.613L650.3,418.71" style="fill:none;stroke:#DCDCDC;stroke-width:0.25" />
<path d="M42.135,37.613L720,37.613" style="fill:none;stroke:#DCDCDC;stroke-width:0.25" />
<path d="M42.135,194.06L720,194.06" style="fill:none;stroke:#DCDCDC;stroke-width:0.25" />
<path d="M42.135,350.5L720,350.5" style="fill:none;stroke:#DCDCDC;stroke-width:0.25" />
<path d="M97.107,418.71L98.507,395.19L101.33,362.34L104.28,338.72L107.39,322L110.66,310.42L114.08,302.64L117.68,297.63L121.46,294.58L125.42,292.88L129.59,292.06L133.96,291.76L138.55,291.7L143.37,291.69L148.43,291.56L153.75,291.21L159.33,290.57L165.19,289.57L171.34,288.21L177.8,286.45L184.58,284.3L191.71,281.77L199.19,278.88L207.04,275.63L215.28,272.07L223.94,268.21L233.03,264.08L242.58,259.71L252.6,255.13L263.12,250.37L274.17,245.45L285.77,240.41L297.95,235.26L310.74,230.04L324.17,224.76L338.28,219.44L353.08,214.11L368.63,208.78L384.96,203.47L402.1,198.2L420.1,192.97L438.99,187.8L458.84,182.7L479.67,177.68L501.55,172.74L524.52,167.9L548.64,163.16L573.96,158.53L600.55,154L628.48,149.59L657.79,145.29" style="fill:none;stroke:#FF00FF;stroke-dasharray:5,5" />
<text x="659.79" y="-146.38" transform="scale(1, -1)"
	style="font-family:Liberation Serif;font-variant:normal;font-weight:normal;font-style:normal;font-size:10px">Tc=305.3 K</text>
<path d="M72.937,42.536L73.023,42.864L73.111,43.208L73.2,43.57L73.29,43.95L73.382,44.348L73.474,44.766L73.569,45.203L73.665,45.661L73.762,46.14L73.86,46.64L73.961,47.163L74.062,47.709L74.166,48.278L74.271,48.871L74.378,49.49L74.486,50.134L74.596,50.804L74.709,51.501L74.823,52.226L74.939,52.98L75.056,53.762L75.176,54.574L75.298,55.417L75.422,56.291L75.549,57.197L75.677,58.135L75.808,59.107L75.942,60.114L76.077,61.155L76.216,62.231L76.357,63.345L76.5,64.495L76.647,65.683L76.796,66.911L76.948,68.177L77.103,69.484L77.262,70.832L77.423,72.222L77.588,73.655L77.757,75.131L77.929,76.651L78.104,78.216L78.284,79.828L78.467,81.486L78.655,83.192L78.847,84.946L79.043,86.749L79.243,88.602L79.449,90.506L79.659,92.462L79.875,94.471L80.096,96.533L80.322,98.649L80.554,100.82L80.792,103.05L81.037,105.33L81.288,107.67L81.546,110.08L81.811,112.54L82.083,115.06L82.363,117.64L82.652,120.28L82.949,122.99L83.255,125.76L83.571,128.6L83.897,131.5L84.233,134.47L84.581,137.51L84.94,140.62L85.312,143.79L85.697,147.04L86.096,150.36L86.51,153.75L86.94,157.21L87.387,160.75L87.852,164.37L88.336,168.06L88.842,171.83L89.37,175.68L89.923,179.6L90.502,183.61L91.11,187.7L91.749,191.87L92.423,196.13L93.134,200.47L93.887,204.89L94.687,209.41L95.539,214.01L96.449,218.7L97.425,223.48L98.477,228.35L99.616,233.31L100.86,238.37L102.22,243.52L103.73,248.77L105.42,254.12L107.34,259.56L109.57,265.11L112.21,270.75L130.62,291.68L188.26,270.75L197.33,265.11L206.17,259.56L214.91,254.12L223.62,248.77L232.36,243.52L241.18,238.37L250.11,233.31L259.17,228.35L268.39,223.48L277.8,218.7L287.41,214.01L297.23,209.41L307.29,204.89L317.61,200.47L328.19,196.13L339.07,191.87L350.24,187.7L361.74,183.61L373.57,179.6L385.76,175.68L398.32,171.83L411.27,168.06L424.62,164.37L438.41,160.75L452.65,157.21L467.36,153.75L482.56,150.36L498.29,147.04L514.55,143.79L531.38,140.62L548.8,137.51L566.84,134.47L585.54,131.5L604.92,128.6L625.01,125.76L645.86,122.99L667.49,120.28L689.94,117.64L713.26,115.06L720,114.36" style="fill:none;stroke:#000000;stroke-width:1.5" />
<path d="M128.86,289.91L132.39,293.45" style="fill:none;stroke:#FF00FF;stroke-width:0.5" />
<path d="M128.86,293.45L132.39,289.91" style="fill:none;stroke:#FF00FF;stroke-width:0.5" />
<path d="M93.007,418.71L93.266,410.81L95.822,357.15L98.507,318.96L101.33,292.3L104.28,274.22L107.39,262.5L110.66,255.46L114.08,251.79L117.68,250.52L121.46,250.89L125.42,252.32L129.59,254.36L133.96,256.69L138.55,259.06L143.37,261.27L148.43,263.2L153.75,264.75L159.33,265.86L165.19,266.5L171.34,266.64L177.8,266.27L184.58,265.42L191.71,264.1L199.19,262.32L207.04,260.11L215.28,257.51L223.94,254.55L233.03,251.26L242.58,247.68L252.6,243.83L263.12,239.75L274.17,235.47L285.77,231.02L297.95,226.43L310.74,221.72L324.17,216.93L338.28,212.07L353.08,207.16L368.63,202.23L384.96,197.3L402.1,192.37L420.1,187.47L438.99,182.61L458.84,177.8L479.67,173.05L501.55,168.37L524.52,163.77L548.64,159.26L573.96,154.84L600.55,150.51L628.48,146.29L657.79,142.17" style="fill:none;stroke:#0000FF" />
<text x="659.79" y="-133.26" transform="scale(1, -1)"
	style="font-family:Liberation Serif;font-variant:normal;font-weight:normal;font-style:normal;font-size:10px">T=299.0 K</text>
<path d="M365.43,204.49A4,4 0 1 1 357.43,204.49A4,4 0 1 1 365.43,204.49Z" style="fill:#FF0000" />
<text x="366.43" y="-210.58" transform="scale(1, -1)"
	style="font-family:Liberation Serif;font-variant:normal;font-weight:normal;font-style:normal;font-size:10px">1</text>
<path d="M346.93,418.71L353.08,411.55L368.63,395.07L384.96,379.3L402.1,364.19L420.1,349.74L438.99,335.9L458.84,322.65L479.67,309.97L501.55,297.82L524.52,286.2L548.64,275.07L573.96,264.42L600.55,254.23L628.48,244.48L657.79,235.14" style="fill:none;stroke:#0000FF" />
<text x="659.79" y="-246.23" transform="scale(1, -1)"
	style="font-family:Liberation Serif;font-variant:normal;font-weight:normal;font-style:normal;font-size:10px">T=490.0 K</text>
<path d="M365.3,402.65A4,4 0 1 1 357.3,402.65A4,4 0 1 1 365.3,402.65Z" style="fill:#FF0000" />
<text x="366.3" y="-408.74" transform="scale(1, -1)"
	style="font-family:Liberation Serif;font-variant:normal;font-weight:normal;font-style:normal;font-size:10px">2</text>
</g>
</svg>
